<svg width="899" height="899" viewBox="0 0 899 899" fill="none" xmlns="http://www.w3.org/2000/svg">
<circle cx="449.5" cy="449.5" r="449.5" fill="black"/>
<path d="M197.771 679.573V396.429L224.592 317.665L269.746 252.82L347.152 198.16L431.349 178.469H492.119L574.958 210.722L629.957 252.82L687.672 340.072L697.518 396.429V679.573H555.267V412.046L520.298 359.763L478.539 334.64L427.954 331.584L363.448 371.985L347.152 418.157L343.078 679.573H197.771Z" fill="white" fill-opacity="0.97"/>
<path d="M449.342 171C307.445 171 192 286.445 192 428.342V679.251C192 682.807 194.878 685.684 198.434 685.684H344.325C347.881 685.684 350.759 682.807 350.759 679.251V434.363C350.759 380.005 394.983 335.779 449.342 335.779C503.701 335.779 547.926 380.004 547.926 434.363V679.251C547.926 682.807 550.803 685.684 554.359 685.684H700.251C703.807 685.684 706.684 682.807 706.684 679.251V428.342C706.684 286.445 591.239 171 449.342 171ZM693.817 672.817H560.793V434.363C560.793 372.912 510.794 322.912 449.342 322.912C387.89 322.912 337.892 372.911 337.892 434.363V672.817H204.867V428.342C204.867 293.538 314.538 183.867 449.342 183.867C584.147 183.867 693.817 293.538 693.817 428.342V672.817Z" fill="black"/>
</svg>
